<?xml version="1.0" encoding="UTF-8"?>
<svg id="Layer_1" data-name="Layer 1" xmlns="http://www.w3.org/2000/svg" xmlns:xlink="http://www.w3.org/1999/xlink" viewBox="0 0 665.46 673.68">
  <defs>
    <style>
      .cls-1 {
        fill: url(#radial-gradient-7);
      }

      .cls-2 {
        fill: url(#radial-gradient-6);
      }

      .cls-3 {
        fill: url(#radial-gradient-5);
      }

      .cls-4 {
        fill: url(#radial-gradient-4);
      }

      .cls-5 {
        fill: url(#radial-gradient-9);
      }

      .cls-6 {
        fill: url(#radial-gradient-8);
      }

      .cls-7 {
        fill: url(#radial-gradient-3);
      }

      .cls-8 {
        fill: url(#radial-gradient-2);
      }

      .cls-9 {
        fill: url(#radial-gradient);
      }

      .cls-10 {
        fill: url(#radial-gradient-12);
      }

      .cls-11 {
        fill: url(#radial-gradient-14);
      }

      .cls-12 {
        fill: url(#radial-gradient-13);
      }

      .cls-13 {
        fill: url(#radial-gradient-10);
      }

      .cls-14 {
        fill: url(#radial-gradient-11);
      }
    </style>
    <radialGradient id="radial-gradient" cx="393.73" cy="238.83" fx="393.73" fy="238.83" r="201.59" gradientUnits="userSpaceOnUse">
      <stop offset="0" stop-color="#00aeef"/>
      <stop offset=".27" stop-color="#008fcb"/>
      <stop offset="1" stop-color="#00416f"/>
    </radialGradient>
    <radialGradient id="radial-gradient-2" cx="269.99" cy="434.22" fx="269.99" fy="434.22" r="203.28" xlink:href="#radial-gradient"/>
    <radialGradient id="radial-gradient-3" cx="256.47" cy="205.52" fx="256.47" fy="205.52" r="148.9" xlink:href="#radial-gradient"/>
    <radialGradient id="radial-gradient-4" cx="127.93" cy="378.2" fx="127.93" fy="378.2" r="118.32" xlink:href="#radial-gradient"/>
    <radialGradient id="radial-gradient-5" cx="539.75" cy="293.99" fx="539.75" fy="293.99" r="119.95" xlink:href="#radial-gradient"/>
    <radialGradient id="radial-gradient-6" cx="547.74" cy="271.31" fx="547.74" fy="271.31" r="156.39" xlink:href="#radial-gradient"/>
    <radialGradient id="radial-gradient-7" cx="119.27" cy="404.78" fx="119.27" fy="404.78" r="152.89" xlink:href="#radial-gradient"/>
    <radialGradient id="radial-gradient-8" cx="445.37" cy="497.09" fx="445.37" fy="497.09" r="121.45" xlink:href="#radial-gradient"/>
    <radialGradient id="radial-gradient-9" cx="73.21" cy="282.84" fx="73.21" fy="282.84" r="122.53" xlink:href="#radial-gradient"/>
    <radialGradient id="radial-gradient-10" cx="593.33" cy="389.15" fx="593.33" fy="389.15" r="124.77" xlink:href="#radial-gradient"/>
    <radialGradient id="radial-gradient-11" cx="569.61" cy="438.69" fx="569.61" fy="438.69" r="115.94" xlink:href="#radial-gradient"/>
    <radialGradient id="radial-gradient-12" cx="96.69" cy="231.81" fx="96.69" fy="231.81" r="115.23" xlink:href="#radial-gradient"/>
    <radialGradient id="radial-gradient-13" cx="511.41" cy="489.85" fx="511.41" fy="489.85" r="105" xlink:href="#radial-gradient"/>
    <radialGradient id="radial-gradient-14" cx="154.09" cy="180.78" fx="154.09" fy="180.78" r="104.24" xlink:href="#radial-gradient"/>
  </defs>
  <g id="Generative_Object" data-name="Generative Object">
    <path class="cls-9" d="M503.74,391.97c4.39,28.36,5.32,56.48,1.72,85.68-3.69-22.58-7.04-44.75-14.79-66.23-15.74-43.64-44.03-80.95-80.96-110.06l-59.46-46.87c-16.4-12.93-29.1-28.59-39.4-46.28-11.94-20.5-17.87-42.61-19.21-66.34-.79-14.01,1.71-27.01,3.31-41.92-19.6,39.28-18.02,82.47.06,121.34,10.13,21.78,23.4,40.61,40.37,57.84l45.23,45.92c21.24,21.57,39.12,53.94,43.43,83.97-12.85-22.04-26.22-41.1-44.25-57.91-12.59-11.74-24.54-22.17-38.65-31.78-20.97-14.29-40.53-30.13-57.85-49.26-63.12-69.68-59.62-181.31,6.97-245.84,11.5-11.15,24.85-18.96,39.64-22.92s29.76,1.65,38.85,12.79c9.54,11.69,11.09,28.18,3.72,41.53l-21.8,39.52c-9.92,17.99-13.1,37.96-11.48,58.69,2.5,32.11,24.86,65.77,49.82,85.27l34.5,26.95c-17.93-21.05-33.78-40.39-46.68-63.48-16.39-29.34-21.26-64.13-10.54-96.16,9.58-28.6,29.38-52.03,56.61-65.12,20.12-9.67,41.85-11.21,63.17-3.65,16.62,5.89,31.57,14.54,44.93,26.08l18.42,15.9-15.71-6c-15.81-6.04-31.74-9.3-48.69-7.37-19.64,2.24-37.24,9.91-51.57,23.32-15.4,14.41-25.41,32.31-27.84,53.26-4.48,38.62,12.24,75.83,33.58,106.53,31.89,45.88,55.81,86.11,64.55,142.63Z"/>
    <path class="cls-8" d="M298.58,603.47c15.83-25.91,29.83-50.56,29.96-81.99.08-17.7-3.74-34.1-11.95-49.57-8.99-16.95-20.13-31.77-34.97-44.36l-35.64-30.22c-2.6,3.92,1.79,4.08,2.86,5.44l32.85,41.94c15.58,21.7,24.11,47.81,24.85,74.95,1.26,46.22-24.48,88.28-65.48,108.43-44.93,22.09-86.34,1.43-120.31-30.37-3.47-3.25-6.88-5.53-9.82-9.98l18.26,7.71c33.14,13.99,71.23,9.16,98.81-13.91l14.62-15.06c28.77-36.33,26.01-92.91,1.62-129.66l-39.49-59.5c-25.58-38.55-43.41-91.17-45.45-138.15-.64-14.73-.57-28.98,1.73-44.41,6,51.27,24.96,96.99,60.99,134.91,17.09,17.99,36.37,32.42,55.53,47.98l47.14,38.3c44.54,39.34,60.41,99.75,43.22,157.42,25.43-43.24,23.69-97.23,6.22-143.79-10.22-26.84-25.44-50.55-44.84-72.08l-36.07-36.97c-10.91-11.18-20.2-23.53-26.4-38.39,19.86,20.61,40.36,37.69,63.51,52.51,14.39,9.21,26.7,19.36,39,31.55,35.97,35.63,56.82,82.65,59.43,133.3,1.01,19.52-.24,38.39-4.57,57.47-8.2,36.12-26.08,69.37-53.8,94.59-10.26,9.34-21.91,16.32-34.74,20.43-9.8,3.14-19.25,1.7-27.85-2.81-17.92-9.4-25.64-29.61-18.36-48.72,2.32-6.08,5.7-11.33,9.16-17Z"/>
    <path class="cls-7" d="M336.58,400.26l-30.83-23.84-45.26-34.95c-45.6-35.21-74.41-90.93-81.83-147.09-4.82-36.44-2.16-72.63,9.17-107.09,6.99-21.28,17.18-41.07,32.04-57.95,10.33-11.74,26.14-24.45,38.86-15.62,5.9,4.09,6.65,14.17,1.8,20.36-19.81,25.24-33.36,53.59-41.01,84.81-4.39,17.92-6.03,35.17-6.03,53.96.02,45.02,12.73,87.29,37.38,124.26,12.45,18.67,26.61,35.11,42.19,51.33l19.95,20.77c9.03,9.4,16.66,19.2,23.58,31.05Z"/>
    <path class="cls-4" d="M138.14,524.97c-43.91-9.29-74.76-51.16-88.3-93.21,8.88,9.33,15.91,19.09,25.64,27.08,14.81,12.16,33.15,21.65,52.04,16.13,15.82-4.63,25.35-18.55,25.6-34.91.2-12.79-2.85-24.63-7.67-36.73l-21.91-51.16c-16.26-37.98-24.27-79.37-18.52-121.96,5.84,34.19,15.6,64.71,32.21,93.97,9.82,17.31,20.42,33.03,31.72,49.47,19.76,29.76,40.79,62.71,36.52,99.95-3.87,33.73-33.6,58.5-67.32,51.36Z"/>
    <path class="cls-3" d="M544.28,314.9c16.73,40.82,21.84,86.3,18.33,130.43-4.76-.82-2.01-4.29-2.24-6.05-5.7-44-17.76-77.61-41.06-114.2l-25.27-39.68c-16.47-25.86-33-57.8-30.7-89.17.87-11.9,4.34-22.84,11.16-32.25,18.45-25.46,49.05-26.35,75.55-12.05,32.51,17.54,56.04,52.84,66.34,87.21l-15.88-18.69c-7.74-9.12-16.67-16.64-27.09-22.44-14.18-7.89-32.66-9.64-45.16.93-18.64,15.76-13.14,44.8-4.22,66.58l20.24,49.38Z"/>
    <path class="cls-2" d="M649.44,300.44c-5.68-37.99-18.17-73.91-37.41-106.73-16.25-27.73-39.83-52.2-68.37-66.76-11.96-6.1-24.39-8.78-37.84-8.39-19.05.55-35.51,8.95-48.05,23.42-13.61,15.7-19.06,35.81-18.86,57.39-7.68-15.89-10.25-33.62-8.2-51.11,3.88-33.24,29.26-58.51,62.36-63.31,21.14-3.06,41.69,2.14,60.62,11.97,30.37,15.77,54.46,43.61,70.87,73.34,44.72,81.02,52.27,180.09,25.1,269.89-1.95,6.44-2.51,13.16-7.03,18.41,11.86-52.14,14.72-105.17,6.81-158.11Z"/>
    <path class="cls-1" d="M230.89,470.28c7.07,13.72,8.55,28.8,7.21,44.08-3.74,42.66-41.48,73.62-83.74,70.55-11.49-.83-21.82-3.29-32.38-7.67-39.57-16.42-68.14-48.83-87.27-86.59C11.48,444.84.29,394.5,0,342.2c-.23-40.77,6.14-80.11,20.16-117.77-3.07,24.29-7.14,46.19-8.27,69.96-1.21,25.58-.57,50.04,3.36,75.16,5.29,33.81,15.12,65.93,31.17,95.84,18.47,34.4,46.22,66.93,83.54,80.43,30.97,11.2,64.48,1.21,84.07-25.08,11.28-14.27,15.87-30.96,16.85-50.47Z"/>
    <path class="cls-6" d="M439.14,650.28c-9.7,9.74-23.93,17.62-33.38,9.05-7.14-6.48-5.61-16.2-.14-23.54,13.82-18.55,25.33-37.72,33.4-59.32,11.98-32.1,16.76-65.36,16.42-100.03-.49-50.43-17.04-102.85-43.58-145.26,4.63,1.65,7.62,5.05,11.16,8.34,39.59,36.8,60.47,87.64,65.43,140.7,4.79,51.27-2.63,96.74-26.82,140.33-6.16,11.11-13.58,20.8-22.48,29.73Z"/>
    <path class="cls-5" d="M113.79,414.17c6.97,7.19,10.99,27.07-.78,32.79-10.52,5.11-22.9,2.41-31.63-5.75l-12.61-14.4c-13.09-14.94-21.54-32.3-28.01-51.15-23.3-67.83-18.04-138.77,8.4-203.58,8.37-20.51,19.1-39.74,33.98-55.95-9.05,20.75-17.59,39.49-24.03,60.29-8.53,27.57-12.45,55.42-12.18,84.64.5,54.03,15.7,104.14,55.31,141.22l11.55,11.91Z"/>
    <path class="cls-13" d="M582.36,559.46c13.02-29.3,24.56-57.87,30.68-89.33,7.77-39.97,7.85-80.64-1.68-120.07-6.41-26.5-18.75-50.92-35.83-71.97l-15.5-16.3c-6.27-6.59-11.89-13.89-12.73-23.22-.56-6.21,1.25-12.66,6.24-16.21,13.76-9.79,30.51,2.51,40.91,15.97,33.22,42.99,45.51,94.3,45.01,149.78-.25,28.56-4.26,55.51-12.01,83.01-9.8,31.72-23.98,61.39-45.09,88.33Z"/>
    <path class="cls-14" d="M551.99,590.99c-3.86,5.16-9.39,9.47-13.62,7.48-6.22-2.93-2.34-13.16.71-21.24l26.12-69.22c14.79-39.18,17.15-97.21,10.94-139.78-4.62-31.65-14.28-61.04-27.79-89.83,2.45.43,3.83,2.05,5.33,3.4,10.24,9.17,17.99,20.12,24.5,32.2,15.22,28.23,23.78,59.09,25.52,91.61,2.58,48.13-6.19,95.58-25.22,139.02-7.24,16.53-15.67,31.87-26.51,46.35Z"/>
    <path class="cls-10" d="M97.7,173.62c-21.19,77.9-11.3,144.96,21.62,217.45-14.49-9.87-24.67-23.32-32.66-37.94-14.82-27.13-22.14-56.82-24-87.87-2.84-47.44,5.75-93.69,25.25-136.48,8.52-18.7,18.11-36.57,31.11-52.31,2.31-2.8,8.76-5.63,10.55-2.63,3.18,5.33,1.27,12.41-1.19,17.95-11.91,26.8-22.88,53.14-30.69,81.83Z"/>
    <path class="cls-12" d="M487.24,633.85c-5.59,1.19-9.62-3.83-10.63-8.46-.76-3.5-1.33-8.34.44-12.16l20.77-44.79c17.4-37.51,26.38-77.73,26.09-119.51,1.79-2.05.07-4.41.08-6.26.21-32.73-5.19-63.95-13.85-96.99,23.67,37,35.67,80.79,36.81,125.39l-.03,11.58c-.1,44.94-15.44,109.45-45.36,141.77-3.81,4.12-8.23,8.13-14.31,9.43Z"/>
    <path class="cls-11" d="M158.75,324.12c-27.13-37.27-39.65-86.7-39.07-134.33.5-40.44,8.87-79.51,26.8-114.99,6.63-13.12,14.17-25.25,25.86-34.44,2.87-2.26,7.37-3.81,10.42-2.34,7.55,3.64,7.08,17.28,2.06,27.48-28.05,57.04-46.82,109.28-42.02,176.63,1.4,28.23,7.7,54.16,15.96,81.99Z"/>
  </g>
</svg>